<svg width="980" height="680" viewBox="0 0 980 680" fill="none" xmlns="http://www.w3.org/2000/svg">
  <rect width="980" height="680" rx="40" fill="#0B1220"/>
  <rect x="24" y="24" width="188" height="632" rx="28" fill="#101A2E" stroke="white" stroke-opacity="0.08"/>
  <rect x="240" y="24" width="716" height="80" rx="28" fill="#101A2E" stroke="white" stroke-opacity="0.08"/>
  <rect x="58" y="58" width="48" height="48" rx="14" fill="url(#g)"/>
  <rect x="122" y="62" width="60" height="14" rx="7" fill="white"/>
  <rect x="122" y="86" width="42" height="10" rx="5" fill="#64748B"/>
  <rect x="54" y="154" width="124" height="20" rx="10" fill="#2DD4BF" fill-opacity="0.24"/>
  <rect x="54" y="206" width="110" height="18" rx="9" fill="white" fill-opacity="0.55"/>
  <rect x="54" y="254" width="138" height="18" rx="9" fill="white" fill-opacity="0.55"/>
  <rect x="54" y="302" width="118" height="18" rx="9" fill="white" fill-opacity="0.55"/>
  <rect x="54" y="350" width="132" height="18" rx="9" fill="white" fill-opacity="0.55"/>
  <rect x="54" y="398" width="94" height="18" rx="9" fill="white" fill-opacity="0.55"/>
  <rect x="270" y="50" width="222" height="18" rx="9" fill="white" fill-opacity="0.82"/>
  <rect x="736" y="47" width="146" height="34" rx="17" fill="#2DD4BF" fill-opacity="0.9"/>
  <rect x="240" y="136" width="168" height="132" rx="24" fill="#101A2E" stroke="white" stroke-opacity="0.08"/>
  <rect x="428" y="136" width="168" height="132" rx="24" fill="#101A2E" stroke="white" stroke-opacity="0.08"/>
  <rect x="616" y="136" width="168" height="132" rx="24" fill="#101A2E" stroke="white" stroke-opacity="0.08"/>
  <rect x="804" y="136" width="152" height="132" rx="24" fill="#101A2E" stroke="white" stroke-opacity="0.08"/>
  <circle cx="286" cy="180" r="18" fill="#2DD4BF" fill-opacity="0.8"/>
  <circle cx="474" cy="180" r="18" fill="#38BDF8" fill-opacity="0.8"/>
  <circle cx="662" cy="180" r="18" fill="#F59E0B" fill-opacity="0.8"/>
  <circle cx="850" cy="180" r="18" fill="#A78BFA" fill-opacity="0.8"/>
  <rect x="270" y="218" width="92" height="20" rx="10" fill="white"/>
  <rect x="458" y="218" width="92" height="20" rx="10" fill="white"/>
  <rect x="646" y="218" width="92" height="20" rx="10" fill="white"/>
  <rect x="834" y="218" width="76" height="20" rx="10" fill="white"/>
  <rect x="240" y="294" width="442" height="338" rx="28" fill="#101A2E" stroke="white" stroke-opacity="0.08"/>
  <path d="M286 562C332 482 369 506 410 444C458 372 504 514 548 428C586 354 626 412 644 384" stroke="url(#line)" stroke-width="12" stroke-linecap="round"/>
  <rect x="286" y="332" width="162" height="18" rx="9" fill="white" fill-opacity="0.82"/>
  <rect x="286" y="366" width="262" height="12" rx="6" fill="#64748B"/>
  <rect x="704" y="294" width="252" height="338" rx="28" fill="#101A2E" stroke="white" stroke-opacity="0.08"/>
  <rect x="738" y="332" width="142" height="18" rx="9" fill="white" fill-opacity="0.82"/>
  <rect x="738" y="386" width="184" height="52" rx="16" fill="white" fill-opacity="0.08"/>
  <rect x="738" y="456" width="184" height="52" rx="16" fill="white" fill-opacity="0.08"/>
  <rect x="738" y="526" width="184" height="52" rx="16" fill="white" fill-opacity="0.08"/>
  <rect x="762" y="404" width="96" height="12" rx="6" fill="#94A3B8"/>
  <rect x="762" y="474" width="118" height="12" rx="6" fill="#94A3B8"/>
  <rect x="762" y="544" width="104" height="12" rx="6" fill="#94A3B8"/>
  <defs>
    <linearGradient id="g" x1="58" y1="58" x2="106" y2="106" gradientUnits="userSpaceOnUse">
      <stop stop-color="#38BDF8"/>
      <stop offset="0.55" stop-color="#2DD4BF"/>
      <stop offset="1" stop-color="#F59E0B"/>
    </linearGradient>
    <linearGradient id="line" x1="286" y1="562" x2="644" y2="384" gradientUnits="userSpaceOnUse">
      <stop stop-color="#38BDF8"/>
      <stop offset="0.55" stop-color="#2DD4BF"/>
      <stop offset="1" stop-color="#F59E0B"/>
    </linearGradient>
  </defs>
</svg>
