<svg width="1600" height="900" viewBox="0 0 1600 900" fill="none" xmlns="http://www.w3.org/2000/svg">
  <rect width="1600" height="900" fill="#070816"/>
  <circle cx="270" cy="134" r="360" fill="#6D5EF7" fill-opacity="0.34"/>
  <circle cx="1304" cy="231" r="300" fill="#00D4FF" fill-opacity="0.19"/>
  <circle cx="1031" cy="835" r="260" fill="#FFB86B" fill-opacity="0.16"/>
  <rect x="120" y="128" width="1360" height="644" rx="54" fill="white" fill-opacity="0.07" stroke="white" stroke-opacity="0.16"/>
  <text x="180" y="279" fill="white" font-family="Inter, Arial" font-size="34" font-weight="800" letter-spacing="4">NEXORA LEADFLOW</text>
  <text x="180" y="417" fill="white" font-family="Inter, Arial" font-size="92" font-weight="900">Commercial Landing</text>
  <text x="180" y="526" fill="white" font-family="Inter, Arial" font-size="92" font-weight="900">Page Template</text>
  <text x="184" y="620" fill="#A6ADC8" font-family="Inter, Arial" font-size="34">HTML · CSS · JavaScript · Documentation</text>
  <rect x="184" y="662" width="250" height="74" rx="37" fill="url(#paint0_linear)"/>
  <text x="234" y="710" fill="white" font-family="Inter, Arial" font-size="26" font-weight="900">Premium UI</text>
  <rect x="993" y="198" width="370" height="464" rx="34" fill="white" fill-opacity="0.10" stroke="white" stroke-opacity="0.15"/>
  <rect x="1036" y="250" width="190" height="28" rx="14" fill="white" fill-opacity="0.75"/>
  <rect x="1036" y="306" width="260" height="18" rx="9" fill="white" fill-opacity="0.25"/>
  <rect x="1036" y="346" width="230" height="18" rx="9" fill="white" fill-opacity="0.25"/>
  <rect x="1036" y="420" width="120" height="120" rx="32" fill="#6D5EF7" fill-opacity="0.62"/>
  <rect x="1194" y="420" width="120" height="120" rx="32" fill="#00D4FF" fill-opacity="0.48"/>
  <rect x="1036" y="580" width="270" height="44" rx="22" fill="#FFB86B" fill-opacity="0.82"/>
  <defs>
    <linearGradient id="paint0_linear" x1="184" y1="662" x2="434" y2="736" gradientUnits="userSpaceOnUse">
      <stop stop-color="#6D5EF7"/>
      <stop offset="1" stop-color="#00D4FF"/>
    </linearGradient>
  </defs>
</svg>
