<svg width="1080" height="760" viewBox="0 0 1080 760" fill="none" xmlns="http://www.w3.org/2000/svg">
  <rect width="1080" height="760" rx="46" fill="#F4EFE6"/>
  <circle cx="902" cy="120" r="180" fill="#1F6FEB" fill-opacity="0.11"/>
  <circle cx="140" cy="654" r="170" fill="#D6B268" fill-opacity="0.18"/>
  <rect x="70" y="64" width="940" height="86" rx="43" fill="#FFFFFF" stroke="#DFD7CB" stroke-width="2"/>
  <rect x="110" y="95" width="136" height="24" rx="12" fill="#0D1321"/>
  <rect x="760" y="95" width="86" height="24" rx="12" fill="#E4DED4"/>
  <rect x="866" y="92" width="100" height="30" rx="15" fill="#0D1321"/>
  <rect x="70" y="190" width="440" height="356" rx="34" fill="#FFFFFF" stroke="#DFD7CB" stroke-width="2"/>
  <rect x="108" y="232" width="126" height="22" rx="11" fill="#D6B268"/>
  <rect x="108" y="278" width="330" height="34" rx="17" fill="#0D1321"/>
  <rect x="108" y="326" width="290" height="18" rx="9" fill="#748094"/>
  <rect x="108" y="358" width="260" height="18" rx="9" fill="#B3B9C3"/>
  <rect x="108" y="418" width="142" height="56" rx="28" fill="#1F6FEB"/>
  <rect x="270" y="418" width="142" height="56" rx="28" fill="#F4EFE6" stroke="#D8C8AA" stroke-width="2"/>
  <rect x="108" y="506" width="80" height="16" rx="8" fill="#0D1321"/>
  <rect x="212" y="506" width="86" height="16" rx="8" fill="#D6B268"/>
  <rect x="322" y="506" width="82" height="16" rx="8" fill="#E4DED4"/>
  <rect x="552" y="190" width="458" height="216" rx="34" fill="#0D1321"/>
  <rect x="590" y="228" width="150" height="20" rx="10" fill="#F4EFE6"/>
  <rect x="590" y="266" width="300" height="16" rx="8" fill="#748094"/>
  <rect x="590" y="296" width="236" height="16" rx="8" fill="#4D5667"/>
  <rect x="590" y="342" width="138" height="34" rx="17" fill="#D6B268"/>
  <path d="M907 244C931 258 941 288 930 316C918 347 885 359 857 346C830 333 820 300 833 273C846 246 879 229 907 244Z" fill="#1F6FEB"/>
  <path d="M883 256V334M844 295H922" stroke="#F4EFE6" stroke-width="14" stroke-linecap="round"/>
  <rect x="552" y="434" width="216" height="112" rx="30" fill="#FFFFFF" stroke="#DFD7CB" stroke-width="2"/>
  <rect x="590" y="470" width="88" height="22" rx="11" fill="#0D1321"/>
  <rect x="590" y="508" width="130" height="16" rx="8" fill="#B3B9C3"/>
  <rect x="794" y="434" width="216" height="112" rx="30" fill="#FFFFFF" stroke="#DFD7CB" stroke-width="2"/>
  <rect x="832" y="470" width="78" height="22" rx="11" fill="#D6B268"/>
  <rect x="832" y="508" width="126" height="16" rx="8" fill="#B3B9C3"/>
  <rect x="70" y="590" width="940" height="94" rx="47" fill="#0D1321"/>
  <rect x="116" y="628" width="178" height="20" rx="10" fill="#F4EFE6"/>
  <rect x="326" y="628" width="120" height="20" rx="10" fill="#D6B268"/>
  <rect x="478" y="628" width="94" height="20" rx="10" fill="#1F6FEB"/>
  <rect x="820" y="616" width="146" height="44" rx="22" fill="#FFFFFF"/>
</svg>
