<svg width="980" height="720" viewBox="0 0 980 720" fill="none" xmlns="http://www.w3.org/2000/svg">
<rect width="980" height="720" rx="42" fill="#F8FCFB"/>
<circle cx="810" cy="124" r="222" fill="#CCFBF1"/>
<circle cx="128" cy="638" r="214" fill="#EDE9FE"/>
<rect x="64" y="58" width="852" height="604" rx="34" fill="white" stroke="#D7E7E4" stroke-width="2"/>
<rect x="104" y="100" width="226" height="36" rx="18" fill="#0F766E"/>
<rect x="690" y="99" width="150" height="38" rx="19" fill="#14B8A6"/>
<rect x="104" y="171" width="382" height="26" rx="13" fill="#0B2230"/>
<rect x="104" y="214" width="510" height="16" rx="8" fill="#8AA5A1"/>
<rect x="104" y="246" width="420" height="16" rx="8" fill="#B8CBC8"/>
<rect x="104" y="302" width="180" height="54" rx="27" fill="#14B8A6"/>
<rect x="304" y="302" width="180" height="54" rx="27" fill="#F1F5F9" stroke="#D7E7E4"/>
<rect x="624" y="164" width="220" height="240" rx="30" fill="#0F766E"/>
<circle cx="734" cy="237" r="54" fill="#CCFBF1"/>
<path d="M736 209v58M707 238h58" stroke="#0F766E" stroke-width="14" stroke-linecap="round"/>
<rect x="672" y="322" width="126" height="16" rx="8" fill="white"/>
<rect x="672" y="354" width="96" height="12" rx="6" fill="white" fill-opacity=".55"/>
<rect x="104" y="425" width="220" height="132" rx="24" fill="#F1FFFD" stroke="#C9F4EE"/>
<rect x="356" y="425" width="220" height="132" rx="24" fill="#FAF8FF" stroke="#E8DEFF"/>
<rect x="608" y="425" width="220" height="132" rx="24" fill="#F7FAFC" stroke="#D7E7E4"/>
<rect x="132" y="454" width="54" height="54" rx="18" fill="#14B8A6"/>
<rect x="384" y="454" width="54" height="54" rx="18" fill="#8B5CF6"/>
<rect x="636" y="454" width="54" height="54" rx="18" fill="#0EA5E9"/>
<rect x="132" y="528" width="142" height="14" rx="7" fill="#0B2230"/>
<rect x="384" y="528" width="142" height="14" rx="7" fill="#0B2230"/>
<rect x="636" y="528" width="142" height="14" rx="7" fill="#0B2230"/>
<rect x="104" y="590" width="740" height="40" rx="20" fill="#EAF7F5"/>
<path d="M140 610h150M330 610h150M520 610h150M710 610h90" stroke="#7BA39D" stroke-width="12" stroke-linecap="round"/>
</svg>